<?xml version="1.0" standalone="no"?><!DOCTYPE svg PUBLIC "-//W3C//DTD SVG 1.1//EN" "http://www.w3.org/Graphics/SVG/1.1/DTD/svg11.dtd"><svg t="1686933015268" class="icon" viewBox="0 0 1143 1024" version="1.1" xmlns="http://www.w3.org/2000/svg" p-id="19120" xmlns:xlink="http://www.w3.org/1999/xlink" width="223.2421875" height="200"><path d="M951.66559317 559.55395764L593.5643155 916.33187524A53.46375321 53.46375321 0 0 1 561.32395151 933.76714585c-28.53495511 2.266254-57.89701016-31.92606546-57.73158985-31.7110188L165.40765525 565.11207013l0.28121346-0.2812143A275.20930178 275.20930178 0 0 1 555.46808262 176.49079681l5.85586889-5.83932678a275.50705737 275.50705737 0 0 1 390.34164166 388.90248761zM842.02519814 175.564445a100.52575104 100.52575104 0 0 0-41.09033495 8.89959733l26.23561688 26.18599054a66.71389774 66.71389774 0 0 1 81.63478346 65.09278125 66.64772928 66.64772928 0 0 1-1.6541999 14.63967224L933.76714585 317.06473703a99.40089551 99.40089551 0 0 0 8.99885-41.07379285 100.60846162 100.60846162 0 0 0-100.7407977-100.42649917z" fill="#cdcdcd" p-id="19121"></path></svg>